<mxfile host="app.diagrams.net" agent="Mozilla/5.0 (Macintosh; Intel Mac OS X 10_15_7) AppleWebKit/537.36 (KHTML, like Gecko) Chrome/140.0.0.0 Safari/537.36" version="28.2.4">
  <diagram name="Page-1" id="zfL4oLGSepfnnzRN5Fpi">
    <mxGraphModel dx="785" dy="544" grid="1" gridSize="10" guides="1" tooltips="1" connect="1" arrows="1" fold="1" page="1" pageScale="1" pageWidth="850" pageHeight="1100" math="0" shadow="0">
      <root>
        <mxCell id="0" />
        <mxCell id="1" parent="0" />
        <mxCell id="GCLW5aotIaKdi6RYNYQ--1" value="Launch Free AI-Powered&#xa;Interview Coach Tool" style="whiteSpace=wrap;strokeWidth=2;sketch=1;curveFitting=1;jiggle=2;" vertex="1" parent="1">
          <mxGeometry x="20" y="20" width="233" height="78" as="geometry" />
        </mxCell>
        <mxCell id="GCLW5aotIaKdi6RYNYQ--2" value="Viral Growth Loop" style="rhombus;strokeWidth=2;whiteSpace=wrap;sketch=1;curveFitting=1;jiggle=2;" vertex="1" parent="1">
          <mxGeometry x="45" y="171" width="183" height="183" as="geometry" />
        </mxCell>
        <mxCell id="GCLW5aotIaKdi6RYNYQ--3" value="Tens of Thousands of&#xa;New Developers" style="whiteSpace=wrap;strokeWidth=2;sketch=1;curveFitting=1;jiggle=2;" vertex="1" parent="1">
          <mxGeometry x="32" y="426" width="209" height="78" as="geometry" />
        </mxCell>
        <mxCell id="GCLW5aotIaKdi6RYNYQ--4" value="Creates" style="curved=1;startArrow=none;endArrow=block;exitX=0.5;exitY=1;entryX=0.5;entryY=0;rounded=0;sketch=1;curveFitting=1;jiggle=2;" edge="1" parent="1" source="GCLW5aotIaKdi6RYNYQ--1" target="GCLW5aotIaKdi6RYNYQ--2">
          <mxGeometry relative="1" as="geometry">
            <Array as="points" />
          </mxGeometry>
        </mxCell>
        <mxCell id="GCLW5aotIaKdi6RYNYQ--5" value="Attracts" style="curved=1;startArrow=none;endArrow=block;exitX=0.5;exitY=1;entryX=0.5;entryY=0.01;rounded=0;sketch=1;curveFitting=1;jiggle=2;" edge="1" parent="1" source="GCLW5aotIaKdi6RYNYQ--2" target="GCLW5aotIaKdi6RYNYQ--3">
          <mxGeometry relative="1" as="geometry">
            <Array as="points" />
          </mxGeometry>
        </mxCell>
      </root>
    </mxGraphModel>
  </diagram>
</mxfile>
